<?xml version="1.0" encoding="utf-8"?>
<!-- Generator: Adobe Illustrator 18.0.0, SVG Export Plug-In . SVG Version: 6.00 Build 0)  -->
<!DOCTYPE svg PUBLIC "-//W3C//DTD SVG 1.1//EN" "http://www.w3.org/Graphics/SVG/1.1/DTD/svg11.dtd">
<svg version="1.1" id="Layer_1" xmlns="http://www.w3.org/2000/svg" xmlns:xlink="http://www.w3.org/1999/xlink" x="0px" y="0px"
	 viewBox="-51.8 0 563.8 512" enable-background="new -51.8 0 563.8 512" xml:space="preserve">
<path id="bg_22_" fill="#334D5C" d="M-51.8,256c0,141.4,114.6,256,256,256c141.4,0,256-114.6,256-256c0-141.4-114.6-256-256-256
	C62.8,0-51.8,114.6-51.8,256z"/>
<path fill="#2E3141" d="M443.5,347.1C406.7,443.5,313.5,512,204.2,512C94.9,512,1.6,443.5-35.1,347.1L443.5,347.1L443.5,347.1z"/>
<path fill="#A0DCEA" d="M-32.4,85.8c-7.6,43.8-8.2,80.2-1.5,81.3c6.7,1.2,18.3-33.4,25.9-77.1C-0.5,46.3,0.2,9.9-6.5,8.7
	C-13.3,7.5-24.8,42.1-32.4,85.8z"/>
<path fill="#A0DCEA" d="M502.2,178c-2.4,14-2.6,25.7-0.5,26c2.1,0.4,5.9-10.7,8.3-24.7c2.4-14,2.6-25.7,0.5-26
	C508.4,153,504.7,164,502.2,178z"/>
<rect x="473.7" y="149.6" transform="matrix(0.9855 0.1694 -0.1694 0.9855 36.9093 -80.5456)" fill="#EF7060" width="33.6" height="52.8"/>
<rect x="141" y="126.8" transform="matrix(0.9855 0.1694 -0.1694 0.9855 29.6573 -52.7776)" fill="#F37D66" width="366.3" height="41.3"/>
<rect x="475.1" y="172.2" transform="matrix(-0.1694 0.9855 -0.9855 -0.1694 757.2908 -260.1867)" fill="#E26A61" width="26.4" height="33.6"/>
<rect x="312.1" y="-25.6" transform="matrix(-0.1695 0.9855 -0.9855 -0.1695 532.3179 -133.4157)" fill="#EF7060" width="20.6" height="366.3"/>
<rect x="-27" y="55.1" transform="matrix(0.9855 0.1694 -0.1694 0.9855 22.3375 -24.7371)" fill="#ECF0F0" width="366.3" height="127"/>
<rect x="28.4" y="82.7" transform="matrix(0.9855 0.1694 -0.1694 0.9855 24.7511 -33.9796)" fill="#ECF0F0" width="366.3" height="90.8"/>
<rect x="185" y="-32.7" transform="matrix(-0.1694 0.9855 -0.9855 -0.1694 391.0974 -28.7113)" fill="#D8D8D8" width="45.4" height="366.3"/>
<rect x="119" y="-33.3" transform="matrix(-0.1695 0.9855 -0.9855 -0.1695 323.9661 26.6528)" fill="#D8D8D8" width="63.5" height="366.3"/>
<polygon fill="#F37D66" points="-38.2,167.6 30,179.3 57.6,19.2 -10.6,7.4 "/>
<polygon fill="#EF7060" points="43.8,99.2 30,179.3 -38.2,167.6 -24.4,87.5 "/>
<polygon fill="#F37D66" points="293.7,211.8 326.9,217.5 350.1,82.3 316.9,76.6 "/>
<rect x="281.8" y="164" transform="matrix(-0.1694 0.9855 -0.9855 -0.1694 547.8954 -100.0399)" fill="#EF7060" width="68.6" height="33.6"/>
<path fill="#E27C3E" d="M201.3,469.3c0,4.1,3.3,7.4,7.4,7.4l0,0c4.1,0,7.4-3.3,7.4-7.4V224.4c0-4.1-3.3-7.4-7.4-7.4l0,0
	c-4.1,0-7.4,3.3-7.4,7.4V469.3z"/>
<path fill="#F37D66" d="M201.3,469.3c0,4.1,3.3,7.4,7.4,7.4l0,0c4.1,0,7.4-3.3,7.4-7.4V224.4c0-4.1-3.3-7.4-7.4-7.4l0,0
	c-4.1,0-7.4,3.3-7.4,7.4V469.3z"/>
<path fill="#EF7060" d="M309.2,427.2c1.7,3.7,6,5.4,9.7,3.7l0,0c3.7-1.7,5.4-6,3.7-9.8L229,211.1c-1.7-3.7-6-5.4-9.8-3.7l0,0
	c-3.7,1.7-5.4,6-3.7,9.7L309.2,427.2z"/>
<path fill="#EF7060" d="M107.1,427.2c-1.7,3.7-6,5.4-9.7,3.7l0,0c-3.7-1.7-5.4-6-3.7-9.8l93.7-210.1c1.7-3.7,6-5.4,9.8-3.7l0,0
	c3.7,1.7,5.4,6,3.7,9.7L107.1,427.2z"/>
<rect x="174" y="203.5" fill="#F37D66" width="69" height="26.7"/>
<rect x="197.3" y="184.3" fill="#F37D66" width="22.8" height="37.5"/>
<path fill="#F37D66" d="M208.5,369.5l67.1-26.4c3.4-1.3,5.1-5.2,3.7-8.6c-1.3-3.4-5.2-5.1-8.6-3.7l-62.1,24.4L147,328.7
	c-3.4-1.4-7.2,0.1-8.7,3.5c-1.4,3.4,0.1,7.2,3.5,8.7L208.5,369.5z"/>
<path fill="#EF7060" d="M240.2,169.7c3.7-17.2-7.2-34.1-24.4-37.8c-17.2-3.7-34.1,7.2-37.8,24.4c-3.7,17.2,7.2,34.1,24.4,37.8
	C219.6,197.8,236.6,186.9,240.2,169.7z"/>
<path fill="#ECF0F0" d="M227.3,166.9c2.2-10-4.2-19.9-14.3-22.1c-10-2.2-19.9,4.2-22.1,14.3c-2.2,10,4.2,19.9,14.3,22.1
	S225.1,176.9,227.3,166.9z"/>
</svg>
