<?xml version="1.0" encoding="utf-8"?>
<!-- Generator: Adobe Illustrator 18.0.0, SVG Export Plug-In . SVG Version: 6.00 Build 0)  -->
<!DOCTYPE svg PUBLIC "-//W3C//DTD SVG 1.1//EN" "http://www.w3.org/Graphics/SVG/1.1/DTD/svg11.dtd">
<svg version="1.1" id="Polaroids" xmlns="http://www.w3.org/2000/svg" xmlns:xlink="http://www.w3.org/1999/xlink" x="0px" y="0px"
	 viewBox="0 0 519.1 460" enable-background="new 0 0 519.1 460" xml:space="preserve">
<g>
	<circle fill="#334D5D" cx="230" cy="230" r="230"/>
	<g>
		<path fill="#F37D66" d="M433,337.2H25.9c10.5,19.9,23.9,38.1,39.5,54.1h328C409.1,375.3,422.5,357.1,433,337.2z"/>
		<path fill="#B65E4D" d="M65.4,391.2h328c2.2-2.2,4.3-4.4,6.3-6.7H59.1C61.1,386.8,63.3,389.1,65.4,391.2z"/>
		<path fill="#B65E4D" d="M433,337.2H25.9c1.2,2.3,2.4,4.5,3.7,6.7h399.8C430.6,341.6,431.8,339.4,433,337.2z"/>
		<g>
			<path fill="none" stroke="#F4953C" stroke-width="0.2907" stroke-miterlimit="10" d="M425.4,265.9c0,0-185.1,74.1-334.2,0"/>
			<g>
				<rect x="88.1" y="245.6" fill="#FCD463" width="7" height="93"/>
				<circle fill="#FCD463" cx="91.6" cy="239.5" r="9.1"/>
				<circle fill="#FFE175" cx="92.3" cy="238.8" r="7.2"/>
				<circle fill="#FFF8D3" cx="95.1" cy="237.2" r="1.7"/>
				<rect x="79.1" y="338.6" fill="#7B4B18" width="25" height="5"/>
			</g>
			<g>
				<rect x="422.1" y="245.6" fill="#FCD463" width="7" height="93"/>
				<circle fill="#FCD463" cx="425.4" cy="239.5" r="9.1"/>
				<circle fill="#FFE175" cx="426.1" cy="238.8" r="7.2"/>
				<circle fill="#FFF8D3" cx="428.9" cy="237.2" r="1.7"/>
				<path fill="#7B4B18" d="M412.6,337.7v5.2h17.5c1-1.7,1.9-3.5,2.9-5.2H412.6z"/>
			</g>
		</g>
		<g>
			<g>
				<rect x="144.1" y="340.6" fill="#413A4C" width="202" height="29"/>
				<polygon fill="#312C39" points="354.5,330.6 152.9,330.6 144.3,340.6 345.9,340.6 				"/>
				<polygon fill="#211D26" points="355.1,329.9 355.1,359.7 346.1,370.1 346.1,340.3 				"/>
			</g>
			<g>
				<rect x="193.1" y="307.6" fill="#413A4C" width="104" height="30"/>
				<polygon fill="#312C39" points="301.6,301.6 198.5,301.6 193.6,307.6 296.8,307.6 				"/>
				<polygon fill="#211D26" points="302.1,301 302.1,330.8 297.1,337.1 297.1,307.3 				"/>
			</g>
		</g>
		<g>
			<path fill="#F6962F" d="M295.5,291.4c-0.9-0.4-1.8-0.8-2.7-1.2c-15.8-6.7-31.6-13.5-47.4-20.2c-15.5,9.8-31.1,19.7-46.6,29.5
				c-3.7,2.4-8.7,2-12-1c-2.9-2.6-3.3-5.8-3-9.4c0.1-1,0.2-2,0.3-3c1.5-16.9,3-33.8,4.5-50.7c-14.3-11.9-28.7-23.7-43-35.6
				c-2.1-1.7-3.1-4.4-3.1-7.1c-5.9,2.6-7.1,12-2.1,16.1c14.3,11.9,28.7,23.7,43,35.6c-1.5,16.9-3,33.8-4.5,50.7c-0.1,1-0.2,2-0.3,3
				c-0.3,3.6,0.1,6.8,3,9.4c3.3,3,8.2,3.3,12,1c15.5-9.8,31.1-19.7,46.6-29.5c15.8,6.7,31.6,13.5,47.4,20.2c0.9,0.4,1.8,0.8,2.7,1.2
				c3.3,1.4,6.8,1.6,9.9-0.5c0.8-0.5,1.4-1.1,2-1.7c1.7-1.9,2.4-4.3,2.4-6.8C301.6,292.9,298.5,292.7,295.5,291.4z"/>
			<path fill="#F6962F" d="M146.9,191.6c17.3-4,34.6-7.9,51.9-11.9c1.1-2.9,2.3-5.7,3.4-8.6c-16.7,3.8-33.4,7.6-50.1,11.5
				c-1,0.2-1.9,0.4-2.9,0.7c-4.4,1-6.7,5.3-6.7,9.5c0.5-0.2,0.9-0.4,1.5-0.5C144.9,192,145.9,191.8,146.9,191.6z"/>
			<path fill="#F6962F" d="M334.1,175.6c-1.5-4.5-5.4-6.5-9.8-6.8c-18-1.1-36-2.3-54-3.4c-9-15.1-18-30.2-27.1-45.2
				c-0.5-0.9-1-1.7-1.5-2.6c-3.5-5.9-14.2-6.1-17,0.8c-0.7,1.7-1.4,3.5-2.1,5.2c4.3-2.7,11.1-1.5,13.8,3c0.5,0.9,1,1.7,1.5,2.6
				c9,15.1,18,30.2,27.1,45.2c18,1.1,36,2.3,54,3.4c4.4,0.3,8.3,2.3,9.8,6.8c0.4,1.2,0.5,2.5,0.4,3.8c0.3-0.3,0.5-0.6,0.8-0.9
				c0.7-0.7,1.3-1.5,2-2.2C334.4,182.6,335.2,179,334.1,175.6z"/>
			<path fill="#F6962F" d="M304.2,288.7c0.2,0.9,0.4,1.9,0.4,2.8c0.3-0.1,0.6-0.3,0.9-0.5c3.9-2.5,5.1-7,4-11.3
				c-4.3-16.9-8.6-33.7-12.9-50.6c-1.9,2.2-3.9,4.5-5.8,6.7C295.1,253.4,299.6,271,304.2,288.7z"/>
		</g>
		<path fill="#F6962F" d="M297.6,301.1c0,0,11.9-0.8,12.1-17.2C309.9,272.6,297.6,301.1,297.6,301.1z"/>
		<path fill="#F6962F" d="M146.1,184.7l3.1,8.1l-11,13.2C138.2,205.9,130.4,196.9,146.1,184.7"/>
		<path fill="#FCD463" d="M334.1,175.6c-1.5-4.5-5.4-6.5-9.8-6.8c-18-1.1-36-2.3-54-3.4c-9-15.1-18-30.2-27.1-45.2
			c-0.5-0.9-1-1.7-1.5-2.6c-3.5-5.9-14.2-6.1-17,0.8c-6.9,17.4-13.8,34.9-20.8,52.3c-17.3,4-34.6,7.9-51.9,11.9
			c-1,0.2-1.9,0.4-2.9,0.7c-7.2,1.6-9,12.2-3.6,16.6c14.3,11.9,28.7,23.7,43,35.6c-1.5,16.9-3,33.8-4.5,50.7c-0.1,1-0.2,2-0.3,3
			c-0.3,3.6,0.1,6.8,3,9.4c3.3,3,8.2,3.3,12,1c15.5-9.8,31.1-19.7,46.6-29.5c15.8,6.7,31.6,13.5,47.4,20.2c0.9,0.4,1.8,0.8,2.7,1.2
			c3.3,1.4,6.8,1.6,9.9-0.5c3.9-2.5,5.1-7,4-11.3c-4.5-17.6-9-35.3-13.5-52.9c11.4-13.1,22.8-26.2,34.3-39.3c0.7-0.7,1.3-1.5,2-2.2
			C334.4,182.6,335.2,179,334.1,175.6z"/>
		<g>
			<path fill="#FFFFFF" d="M232.2,225.3c0-1.5,0-3.2-0.1-4.9c-0.9-18-9.2-32.2-18.5-31.7c-9.3,0.5-16,15.5-15.1,33.5
				c0.1,1.7,0.2,3.4,0.4,4.9L232.2,225.3z"/>
			<path fill="#413A4C" d="M232.2,225.3c0-1.2,0-2.5-0.1-3.8c-0.7-13.9-7.1-24.8-14.3-24.4c-7.2,0.4-12.4,11.9-11.6,25.8
				c0.1,1.3,0.2,2.6,0.3,3.8L232.2,225.3z"/>
			<polygon fill="#FFFFFF" points="205.3,204.3 214.5,206.3 211.8,197.4 			"/>
			<circle fill="#FFFFFF" cx="210.5" cy="216.8" r="2.5"/>
			<circle fill="#FFFFFF" cx="211.9" cy="210" r="1.7"/>
		</g>
		<g>
			<path fill="#FFFFFF" d="M280.1,222.8c0-1.5,0-3.2-0.1-4.9c-0.9-18-9.2-32.2-18.5-31.7c-9.3,0.5-16,15.5-15.1,33.5
				c0.1,1.7,0.2,3.4,0.4,4.9L280.1,222.8z"/>
			<path fill="#413A4C" d="M280.1,222.8c0-1.2,0-2.5-0.1-3.8c-0.7-13.9-7.1-24.8-14.3-24.4c-7.2,0.4-12.4,11.9-11.6,25.8
				c0.1,1.3,0.2,2.6,0.3,3.8L280.1,222.8z"/>
			<polygon fill="#FFFFFF" points="253.2,201.8 262.4,203.8 259.7,194.9 			"/>
			<circle fill="#FFFFFF" cx="258.4" cy="214.3" r="2.5"/>
			<circle fill="#FFFFFF" cx="259.8" cy="207.5" r="1.7"/>
		</g>
		<path fill="#FFFFFF" d="M221.5,241.4l37.2-4.4c0,0-3.8,14.4-15.3,15.7C232,254,221.5,244.4,221.5,241.4z"/>
		<g>
			<polygon fill="#211D26" points="238.7,272.6 287.3,253.7 282.9,273.5 289.5,286.1 			"/>
			<polygon fill="#211D26" points="248.8,271.9 198,259.9 205.1,278.8 200.2,292.2 			"/>
			<circle fill="#413A4C" cx="243.3" cy="271.7" r="16.6"/>
			<path fill="#211D26" d="M242.2,255.2c-3.1,0.2-6,1.3-8.3,2.9l21.2,25.4c3.3-3.3,5.2-7.9,4.9-13
				C259.3,261.4,251.3,254.5,242.2,255.2z"/>
		</g>
		<g>
			<g>
				<rect x="64.1" y="291.6" fill="#FCD463" width="7" height="92"/>
				<circle fill="#FCD463" cx="67.5" cy="285.7" r="9.1"/>
				<circle fill="#FFE175" cx="68.2" cy="285" r="7.2"/>
				<circle fill="#FFF8D3" cx="71" cy="283.4" r="1.7"/>
				<path fill="#7B4B18" d="M64,389.2h15.4V384H59.1C60.7,385.7,62.4,387.5,64,389.2z"/>
			</g>
			<g>
				<path fill="#FCD463" d="M404.8,291.5h-7V384h2.8c1.4-1.6,2.8-3.2,4.2-4.8V291.5z"/>
				<circle fill="#FCD463" cx="401.3" cy="285.7" r="9.1"/>
				<circle fill="#FFE175" cx="402" cy="285" r="7.2"/>
				<circle fill="#FFF8D3" cx="404.8" cy="283.4" r="1.7"/>
				<path fill="#7B4B18" d="M400.6,384h-12.1v5.2h7.2C397.3,387.5,399,385.7,400.6,384z"/>
			</g>
			<path fill="none" stroke="#F4953C" stroke-width="0.2907" stroke-miterlimit="10" d="M404.8,315.3c0,0-185.1,74.1-334.2,0"/>
		</g>
		<g id="Camera_1_">
			<path fill="#F0F0F0" d="M517.1,179.9l-8.3-2.7c0,0,0.4-1.2,0.9-2.8c0.5-1.5-0.3-3.2-1.9-3.7l-27.6-9c-1.5-0.5-3.2,0.3-3.7,1.9
				c-0.5,1.5-0.9,2.8-0.9,2.8l-8.3-2.7c-1.5-0.5-3.2,0.3-3.7,1.9l-10.8,33.2c-0.5,1.5,0.3,3.2,1.9,3.7l49.8,16.2
				c1.5,0.5,3.2-0.3,3.7-1.9l10.8-33.2C519.4,182,518.6,180.4,517.1,179.9z"/>
			
				<rect x="456.8" y="182.4" transform="matrix(0.9508 0.3099 -0.3099 0.9508 83.1653 -141.1835)" fill="#413A4C" width="58.1" height="17.4"/>
			<g>
				<path fill="#E77E66" d="M469.9,172.4c-0.2,0-0.4,0-0.5-0.1c-0.9-0.3-1.4-1.3-1.1-2.2c0.2-0.7,0.9-1.2,1.7-1.2
					c0.2,0,0.4,0,0.5,0.1c0.4,0.1,0.8,0.5,1,0.9c0.2,0.4,0.2,0.9,0.1,1.3C471.3,171.9,470.7,172.4,469.9,172.4z"/>
				<path fill="#4C4C4C" d="M469.9,169.2c0.1,0,0.3,0,0.5,0.1c0.8,0.2,1.2,1.1,0.9,1.8c-0.2,0.6-0.8,1-1.4,1c-0.1,0-0.3,0-0.5-0.1
					c-0.8-0.2-1.2-1.1-0.9-1.8C468.7,169.6,469.3,169.2,469.9,169.2 M469.9,168.6L469.9,168.6c-0.9,0-1.7,0.6-1.9,1.4
					c-0.2,0.5-0.1,1.1,0.1,1.6c0.2,0.5,0.7,0.8,1.2,1c0.2,0.1,0.4,0.1,0.6,0.1c0.9,0,1.7-0.6,1.9-1.4c0.2-0.5,0.1-1.1-0.1-1.6
					c-0.2-0.5-0.7-0.8-1.2-1C470.3,168.6,470.1,168.6,469.9,168.6L469.9,168.6z"/>
			</g>
			<g opacity="0.1">
				<ellipse transform="matrix(0.9508 0.3099 -0.3099 0.9508 83.2465 -141.142)" cx="485.8" cy="191.4" rx="15.1" ry="14.8"/>
			</g>
			<g>
				<circle fill="#F0F0F0" cx="485.9" cy="191.1" r="14.5"/>
			</g>
			<circle fill="#232323" cx="485.9" cy="191.1" r="11.6"/>
			<circle fill="#191919" cx="485.9" cy="191.1" r="5.8"/>
			<path opacity="4.000000e-02" fill="#FFFFFF" d="M475.5,196.4c-2.9-5.7-0.6-12.7,5.1-15.6s12.7-0.6,15.6,5.1L475.5,196.4z"/>
			
				<ellipse transform="matrix(0.49 0.8717 -0.8717 0.49 408.4155 -326.2965)" opacity="0.4" fill="#E77E66" cx="483.1" cy="185.9" rx="3.2" ry="4"/>
			
				<ellipse transform="matrix(0.49 0.8717 -0.8717 0.49 420.1793 -324.8328)" opacity="0.4" fill="#E77E66" cx="487.7" cy="196.7" rx="1.2" ry="1.4"/>
			<path fill="#4C4C4C" d="M512.5,184.5c-0.2,0.8-1.1,1.2-1.8,0.9l-2.8-0.9c-0.8-0.2-1.2-1.1-0.9-1.8l0,0c0.2-0.8,1.1-1.2,1.8-0.9
				l2.8,0.9C512.3,182.9,512.7,183.7,512.5,184.5L512.5,184.5z"/>
			<path opacity="0.1" fill="#FFFFFF" d="M468.6,171.3c-0.4-0.7-0.1-1.6,0.6-2c0.7-0.4,1.6-0.1,2,0.6L468.6,171.3z"/>
		</g>
		<g id="Camera_2_">
			<path fill="#F0F0F0" d="M99.5,107.1l-8.4,2.4c0,0-0.4-1.3-0.8-2.8c-0.4-1.5-2.1-2.4-3.6-2l-28,8c-1.5,0.4-2.4,2.1-2,3.6
				c0.4,1.5,0.8,2.8,0.8,2.8l-8.4,2.4c-1.5,0.4-2.4,2.1-2,3.6l9.6,33.5c0.4,1.5,2.1,2.4,3.6,2l50.3-14.4c1.5-0.4,2.4-2.1,2-3.6
				l-9.6-33.5C102.7,107.5,101.1,106.6,99.5,107.1z"/>
			
				<rect x="50.9" y="125.1" transform="matrix(0.9615 -0.2748 0.2748 0.9615 -33.6918 27.1252)" fill="#413A4C" width="58.1" height="17.4"/>
			<g>
				<path fill="#E77E66" d="M55.3,127.5c-0.8,0-1.5-0.5-1.7-1.3c-0.3-0.9,0.3-1.9,1.2-2.2c0.2,0,0.3-0.1,0.5-0.1
					c0.8,0,1.5,0.5,1.7,1.3c0.1,0.4,0.1,0.9-0.2,1.3s-0.6,0.7-1,0.8C55.6,127.5,55.5,127.5,55.3,127.5z"/>
				<path fill="#4C4C4C" d="M55.3,124.3c0.6,0,1.2,0.4,1.4,1.1c0.2,0.8-0.2,1.6-1,1.8c-0.1,0-0.3,0.1-0.4,0.1
					c-0.6,0-1.2-0.4-1.4-1.1c-0.2-0.8,0.2-1.6,1-1.8C55,124.3,55.2,124.3,55.3,124.3 M55.3,123.7L55.3,123.7c-0.2,0-0.4,0-0.6,0.1
					c-1.1,0.3-1.7,1.4-1.4,2.5c0.2,0.9,1.1,1.5,2,1.5c0.2,0,0.4,0,0.6-0.1c0.5-0.1,1-0.5,1.2-1c0.3-0.5,0.3-1,0.2-1.5
					C57,124.3,56.2,123.7,55.3,123.7L55.3,123.7z"/>
			</g>
			<g opacity="0.1">
				<ellipse transform="matrix(0.9615 -0.2748 0.2748 0.9615 -33.7655 27.1579)" cx="80.1" cy="134.1" rx="15.1" ry="14.8"/>
			</g>
			<g>
				<circle fill="#F0F0F0" cx="80" cy="133.8" r="14.5"/>
			</g>
			<circle fill="#232323" cx="80" cy="133.8" r="11.6"/>
			<circle fill="#191919" cx="80" cy="133.8" r="5.8"/>
			<path opacity="4.000000e-02" fill="#FFFFFF" d="M74.3,144c-5.6-3.1-7.6-10.2-4.5-15.8s10.2-7.6,15.8-4.5L74.3,144z"/>
			
				<ellipse transform="matrix(0.8937 0.4486 -0.4486 0.8937 66.7361 -19.6076)" opacity="0.4" fill="#E77E66" cx="74.8" cy="131.1" rx="3.2" ry="4"/>
			
				<ellipse transform="matrix(0.8937 0.4486 -0.4486 0.8937 70.6342 -23.3606)" opacity="0.4" fill="#E77E66" cx="84.6" cy="137.4" rx="1.2" ry="1.4"/>
			<path fill="#4C4C4C" d="M98.3,113.5c0.2,0.8-0.2,1.6-1,1.8l-2.8,0.8c-0.8,0.2-1.6-0.2-1.8-1l0,0c-0.2-0.8,0.2-1.6,1-1.8l2.8-0.8
				C97.3,112.2,98.1,112.7,98.3,113.5L98.3,113.5z"/>
			<path opacity="0.1" fill="#FFFFFF" d="M54.6,127c-0.7-0.4-1-1.3-0.6-2c0.4-0.7,1.3-1,2-0.6L54.6,127z"/>
		</g>
		<g id="Camera_3_">
			<path fill="#F0F0F0" d="M398.1,129.5l-5-2.4c0,0,0.4-0.7,0.8-1.7c0.4-0.9,0.1-2-0.9-2.5l-16.6-8.1c-0.9-0.4-2-0.1-2.5,0.9
				c-0.4,0.9-0.8,1.7-0.8,1.7l-5-2.4c-0.9-0.4-2-0.1-2.5,0.9l-9.7,19.9c-0.4,0.9-0.1,2,0.9,2.5l29.8,14.5c0.9,0.4,2,0.1,2.5-0.9
				L399,132C399.4,131.1,399.1,130,398.1,129.5z"/>
			
				<rect x="359.2" y="128.3" transform="matrix(0.8993 0.4373 -0.4373 0.8993 96.5618 -151.6525)" fill="#413A4C" width="36.9" height="11.1"/>
			<g>
				<path fill="#E77E66" d="M369.4,120.8c-0.2,0-0.4,0-0.5-0.1c-0.6-0.3-0.9-1-0.6-1.6c0.2-0.4,0.6-0.7,1.1-0.7c0.2,0,0.4,0,0.5,0.1
					c0.6,0.3,0.9,1,0.6,1.6C370.2,120.5,369.8,120.8,369.4,120.8z"/>
				<path fill="#4C4C4C" d="M369.4,118.7c0.1,0,0.3,0,0.4,0.1c0.5,0.2,0.6,0.8,0.4,1.2c-0.2,0.3-0.5,0.5-0.8,0.5
					c-0.1,0-0.3,0-0.4-0.1c-0.5-0.2-0.6-0.8-0.4-1.2C368.7,118.9,369,118.7,369.4,118.7 M369.4,118.1c-0.6,0-1.1,0.3-1.4,0.8
					c-0.2,0.4-0.2,0.8-0.1,1.1c0.1,0.4,0.4,0.7,0.8,0.9c0.2,0.1,0.4,0.2,0.7,0.2c0.6,0,1.1-0.3,1.4-0.8c0.4-0.7,0.1-1.6-0.7-2
					C369.8,118.2,369.6,118.1,369.4,118.1L369.4,118.1z"/>
			</g>
			<g opacity="0.1">
				<ellipse transform="matrix(0.8993 0.4373 -0.4373 0.8993 96.6262 -151.6006)" cx="377.5" cy="134" rx="9.6" ry="9.4"/>
			</g>
			<g>
				<circle fill="#F0F0F0" cx="377.6" cy="133.9" r="9.2"/>
			</g>
			<circle fill="#232323" cx="377.6" cy="133.9" r="7.4"/>
			<circle fill="#191919" cx="377.6" cy="133.9" r="3.7"/>
			<path opacity="4.000000e-02" fill="#FFFFFF" d="M370.6,136.3c-1.3-3.8,0.7-8,4.6-9.4c3.8-1.3,8,0.7,9.4,4.6L370.6,136.3z"/>
			
				<ellipse transform="matrix(0.3659 0.9306 -0.9306 0.3659 359.8911 -267.5438)" opacity="0.4" fill="#E77E66" cx="376.3" cy="130.3" rx="2" ry="2.5"/>
			
				<ellipse transform="matrix(0.3659 0.9306 -0.9306 0.3659 367.8165 -264.8288)" opacity="0.4" fill="#E77E66" cx="378.3" cy="137.5" rx="0.7" ry="0.9"/>
			<path fill="#4C4C4C" d="M394.9,132c-0.2,0.5-0.8,0.6-1.2,0.4l-1.7-0.8c-0.5-0.2-0.6-0.8-0.4-1.2l0,0c0.2-0.5,0.8-0.6,1.2-0.4
				l1.7,0.8C394.9,131,395.1,131.6,394.9,132L394.9,132z"/>
			<path opacity="0.1" fill="#FFFFFF" d="M368.5,119.9c-0.2-0.5,0.1-1,0.6-1.2c0.5-0.2,1,0.1,1.2,0.6L368.5,119.9z"/>
		</g>
	</g>
	<path opacity="6.000000e-02" fill-rule="evenodd" clip-rule="evenodd" fill="#FFFFFF" d="M459.7,218
		C455.5,136.7,409.1,66.5,342,29.1c-52.3,12-91.3,58.7-91.3,114.4c0,64.8,52.8,117.4,117.9,117.4C405.3,260.9,438.1,244.2,459.7,218
		z"/>
	<path opacity="5.000000e-02" fill-rule="evenodd" clip-rule="evenodd" fill="#FFFFFF" d="M460,230c0-50.8-16.5-97.7-44.4-135.8
		c-51.9,12.3-90.5,58.8-90.5,114.2c0,63.6,50.7,115.3,114,117.4C452.5,296.6,460,264.2,460,230z"/>
	<path opacity="6.000000e-02" fill-rule="evenodd" clip-rule="evenodd" fill="#FFFFFF" d="M0,228.9c20.6,17.6,47.4,28.2,76.6,28.2
		c65.1,0,117.9-52.6,117.9-117.4c0-50.6-32.1-93.7-77.2-110.2C47.6,68.7,0.4,143.2,0,228.9z"/>
</g>
<path fill-rule="evenodd" clip-rule="evenodd" fill="#2E3141" d="M66,391.2c41.7,42.4,99.8,68.8,164,68.8s122.3-26.3,164-68.8H66z"
	/>
</svg>
