<?xml version="1.0" encoding="utf-8"?>
<!-- Generator: Adobe Illustrator 18.0.0, SVG Export Plug-In . SVG Version: 6.00 Build 0)  -->
<!DOCTYPE svg PUBLIC "-//W3C//DTD SVG 1.1//EN" "http://www.w3.org/Graphics/SVG/1.1/DTD/svg11.dtd">
<svg version="1.1" id="Isolation_Mode" xmlns="http://www.w3.org/2000/svg" xmlns:xlink="http://www.w3.org/1999/xlink" x="0px"
	 y="0px" viewBox="0 0 512 512.7" enable-background="new 0 0 512 512.7" xml:space="preserve">
<g>
	<path fill="#334D5D" d="M512,256c0,0.6,0,1.2,0,1.9c-0.1,8.2-0.5,16.3-1.3,24.2c-11,108.2-89.3,196.5-192.4,222.2
		c-19.9,5-40.8,7.6-62.3,7.6c-17,0-33.7-1.7-49.8-4.9c-5.7-1.1-11.4-2.5-17-4c-1.4-0.4-2.8-0.8-4.2-1.2C78.2,471.3,0,372.8,0,256
		C0,114.6,114.6,0,256,0c124,0,227.3,88.1,250.9,205.1c1.6,8.1,2.9,16.3,3.7,24.6C511.5,238.3,512,247.1,512,256z"/>
	<g>
		<g>
			<path fill="#2E3141" d="M418.7,143H90.8v308.6c27.2,23,59.2,40.4,94.3,50.5c1.4,0.4,2.8,0.8,4.2,1.2c5.6,1.5,11.2,2.8,17,4
				c16.1,3.2,32.8,4.9,49.8,4.9c21.5,0,42.3-2.6,62.3-7.6c37.4-9.3,71.6-26.9,100.4-50.7V143z"/>
			<path fill="#FFFFFF" d="M405.1,151.6H104.3v302.5l0,0v8.8c24,17.7,51.3,31.4,80.7,39.8c1.4,0.4,2.8,0.8,4.2,1.2
				c5.6,1.5,11.2,2.8,17,4c16.1,3.2,32.8,4.9,49.8,4.9c21.5,0,42.3-2.7,62.3-7.7c31.7-7.9,61.1-21.8,86.9-40.4V151.6z"/>
		</g>
		<rect x="233.1" y="243.1" fill="#CCCCCC" width="144.6" height="18.6"/>
		<rect x="233.1" y="285.9" fill="#CCCCCC" width="144.6" height="18.6"/>
		<rect x="233.1" y="359.9" fill="#CCCCCC" width="144.6" height="18.6"/>
		<rect x="233.1" y="406.1" fill="#CCCCCC" width="144.6" height="18.6"/>
		<path fill="#2E3141" d="M119.6,231.8v79.5h79.5v-79.5L119.6,231.8L119.6,231.8z M189.6,301.7h-60.5v-60.5h60.5V301.7z"/>
		<path fill="#2E3141" d="M119.6,352v79.5h79.5V352H119.6z M189.6,422h-60.5v-60.5h60.5V422z"/>
		<polygon opacity="0.2" fill="#231F20" enable-background="new    " points="182.3,407.5 226.3,363.5 216.6,353.8 167,391.7 
			144.6,376.1 135,385.7 154.8,405.5 169.5,420.3 169.5,420.3 169.6,420.3 		"/>
		<polygon opacity="0.2" fill="#231F20" enable-background="new    " points="182.3,288 226.3,244 216.6,234.2 167,272.2 
			144.6,256.6 135,266.2 154.8,286 169.5,300.8 169.5,300.7 169.6,300.8 		"/>
		<polygon fill="#F37D66" points="178.7,402.6 222.7,358.6 212.9,348.9 163.3,386.9 141,371.3 131.4,380.9 151.1,400.7 165.9,415.4 
			165.9,415.4 165.9,415.4 		"/>
		<polygon fill="#F37D66" points="178.7,283.1 222.7,239.1 212.9,229.4 163.3,267.3 141,251.7 131.4,261.3 151.1,281.1 165.9,295.9 
			165.9,295.9 165.9,295.9 		"/>
		<path fill="#102947" d="M323.6,119.8h-28c-6.7,0-12.2-5.4-12.2-12.1c0-13.8-11.2-25-25-25h-3.7h-3.7c-13.8,0-25,11.2-25,25
			c0,6.7-5.5,12.1-12.2,12.1h-28c-10.4,0-18.9,8.4-18.9,18.9v44.8h175.3v-44.8C342.5,128.3,334,119.8,323.6,119.8z M254.7,127.6
			c-8.2,0-14.9-6.7-14.9-14.9s6.6-15,14.9-15c8.2,0,14.9,6.8,14.9,15S263,127.6,254.7,127.6z"/>
		<path opacity="0.8" fill="#FFFFFF" enable-background="new    " d="M323.6,119.7h-28c-6.7,0-12.1-5.4-12.1-12.1
			c0-13.8-11.2-25-25-25h-7.4c-13.8,0-25,11.2-25,25c0,6.7-5.4,12.1-12.1,12.1h-28c-9.6,0-17.6,7.2-18.7,16.6h175
			C341.2,126.9,333.2,119.7,323.6,119.7z M254.7,125.2c-8.5,0-15.3-6.9-15.3-15.3c0-8.5,6.9-15.3,15.3-15.3
			c8.5,0,15.3,6.9,15.3,15.3C270.1,118.4,263.2,125.2,254.7,125.2z"/>
		<rect x="167.1" y="169.5" opacity="0.5" fill="#FFFFFF" enable-background="new    " width="175.3" height="13.8"/>
		<rect x="167.1" y="136.3" opacity="0.7" fill="#FFFFFF" enable-background="new    " width="175.3" height="33.2"/>
		<g>
			<path fill="#E1E6E6" d="M268.5,97.1l-4.5,4.6c5,5,5,13.2,0,18.2c-5,5-13.2,5-18.2,0l-4.6,4.6c7.5,7.5,19.8,7.5,27.3,0
				C276,116.8,276,104.6,268.5,97.1z"/>
			<path fill="#BCBEC0" d="M245.7,101.6c5-5,13.2-5,18.2,0l4.5-4.6c-7.5-7.5-19.8-7.5-27.3,0c-7.5,7.5-7.5,19.8,0,27.3l4.6-4.6
				C240.7,114.8,240.7,106.6,245.7,101.6z"/>
		</g>
	</g>
</g>
</svg>
