<?xml version="1.0" encoding="utf-8"?>
<!-- Generator: Adobe Illustrator 18.0.0, SVG Export Plug-In . SVG Version: 6.00 Build 0)  -->
<!DOCTYPE svg PUBLIC "-//W3C//DTD SVG 1.1//EN" "http://www.w3.org/Graphics/SVG/1.1/DTD/svg11.dtd">
<svg version="1.1" id="Layer_1" xmlns="http://www.w3.org/2000/svg" xmlns:xlink="http://www.w3.org/1999/xlink" x="0px" y="0px"
	 viewBox="0 0 100 100" enable-background="new 0 0 100 100" xml:space="preserve">
<path fill="#334D5D" d="M50,0c27.6,0,50,22.4,50,50c0,27.6-22.4,50-50,50S0,77.6,0,50C0,22.4,22.4,0,50,0z"/>
<path fill="#4D6471" d="M92.7,76c-0.2,0-0.5,0-0.7,0c-4,0-6-4-6-4s-2.1,4-6,4c-4,0-5.9-4-5.9-4s-2,4-6,4c-4,0-6-4-6-4s-2.1,4-6,4
	c-4,0-6-4-6-4s-2,4-6,4c-4,0-6-4-6-4s-2.1,4-6,4c-4,0-6-4-6-4s-2,4-6,4c-4,0-6-4-6-4s-2.1,4-6,4c-0.3,0-0.5,0-0.8-0.1
	C16,90.4,31.9,100,50,100C68.1,100,84,90.4,92.7,76z"/>
<path fill="#EFEFEF" d="M64.8,96l-3.5-50H38.5L35,96c0,0-0.1,1.5-0.1,1.5v0.2c4.7,1.5,9.8,2.3,15,2.3s10.3-0.8,15-2.3L64.8,96z"/>
<path fill="#DEDEDE" d="M38.3,50h23.4l-0.1-2H38.4L38.3,50z"/>
<path fill="#EFC84A" d="M39,29h22v15H39V29z"/>
<path fill="#EFEFEF" d="M50,19l9,8H41L50,19z"/>
<path fill="#D7D7D7" d="M39,98.8L42.7,46h-4.2L35,96c0,0-0.1,1.5-0.1,1.5v0.2C36.3,98.1,37.6,98.5,39,98.8z"/>
<path fill="#C8C8C8" d="M38.3,50h4.2l0.1-2h-4.2L38.3,50z"/>
<path fill="#F4F4F4" d="M56.8,46l3.7,52.9c1.5-0.3,3-0.7,4.5-1.2L64.9,96l-3.5-50L56.8,46z"/>
<path fill="#E0E0E0" d="M57,50h4.6l-0.1-2h-4.6L57,50z"/>
<path fill="#D7B442" d="M39,29h11v15H39V29z"/>
<path fill="#EFEFEF" d="M62,44h-1v-5h2c0.6,0,1-0.4,1-1c0-0.6-0.4-1-1-1H37c-0.6,0-1,0.4-1,1c0,0.6,0.4,1,1,1h2v5h-1
	c-1.1,0-2,0.9-2,2c0,1.1,0.9,2,2,2h24c1.1,0,2-0.9,2-2C64,44.9,63.1,44,62,44z M41,44v-5h2v5H41z M45,44v-5h2v5H45z M49,44v-5h2v5
	H49z M53,44v-5h2v5H53z M57,44v-5h2v5H57z M38.5,27h23c0.8,0,1.5,0.7,1.5,1.5S62.3,30,61.5,30h-23c-0.8,0-1.5-0.7-1.5-1.5
	S37.7,27,38.5,27z"/>
<path fill="#D7D7D7" d="M41,28.5c0-0.8,0.7-1.5,1.5-1.5h-4c-0.8,0-1.5,0.7-1.5,1.5s0.7,1.5,1.5,1.5h4C41.7,30,41,29.3,41,28.5z"/>
<path fill="#E3E3E3" d="M41,27h9v-8L41,27z"/>
<g>
	<path fill="#E2574C" d="M36.9,70l-0.5,7h27.1L63,70H36.9z M37.8,56l-0.5,7h25.2l-0.5-7H37.8z M64.5,91L64,84H35.9l-0.5,7H64.5z"/>
</g>
<g>
	<path fill="#CB4E44" d="M37.8,56l-0.5,7h4.2l0.5-7H37.8z M36.9,70l-0.5,7h4.2l0.5-7H36.9z M39.5,91l0.5-7h-4.2l-0.5,7H39.5z"/>
</g>
<g>
	<path fill="#E5685E" d="M57.5,56l0.5,7h4.6l-0.5-7H57.5z M58.4,70l0.5,7h4.6L63,70H58.4z M64.5,91L64,84h-4.6l0.5,7H64.5z"/>
</g>
</svg>
