<?xml version="1.0" encoding="utf-8"?>
<!-- Generator: Adobe Illustrator 18.0.0, SVG Export Plug-In . SVG Version: 6.00 Build 0)  -->
<!DOCTYPE svg PUBLIC "-//W3C//DTD SVG 1.1//EN" "http://www.w3.org/Graphics/SVG/1.1/DTD/svg11.dtd">
<svg version="1.1" id="Isolation_Mode" xmlns="http://www.w3.org/2000/svg" xmlns:xlink="http://www.w3.org/1999/xlink" x="0px"
	 y="0px" viewBox="0 0 128 128" enable-background="new 0 0 128 128" xml:space="preserve">
<g id="Layer_1">
	<path fill="#334D5D" d="M64,0c35.3,0,64,28.7,64,64c0,35.3-28.7,64-64,64S0,99.3,0,64C0,28.7,28.7,0,64,0z"/>
	<g>
		<defs>
			<circle id="SVGID_3_" cx="64" cy="64" r="64"/>
		</defs>
		<clipPath id="SVGID_1_">
			<use xlink:href="#SVGID_3_"  overflow="visible"/>
		</clipPath>
		<g clip-path="url(#SVGID_1_)">
			<path fill="#2CA4D5" d="M95-10c11,0,20,9,20,20s-9,20-20,20s-20-9-20-20S84-10,95-10z"/>
			<path fill="#2993C0" d="M89,12c0-2.2-1.8-4-4-4s-4,1.8-4,4s1.8,4,4,4S89,14.2,89,12z M89,21c-1.1,0-2,0.9-2,2s0.9,2,2,2
				s2-0.9,2-2S90.1,21,89,21z M98.5,15c-1.9,0-3.5,1.6-3.5,3.5c0,1.9,1.6,3.5,3.5,3.5c1.9,0,3.5-1.6,3.5-3.5
				C102,16.6,100.4,15,98.5,15z"/>
			<path fill="#EFC84A" d="M64,67c35.3,0,64,28.7,64,64c0,35.3-28.7,64-64,64c-35.3,0-64-28.7-64-64C0,95.7,28.7,67,64,67z"/>
			<path fill="#4D6471" d="M119,58.5L119,58.5c0,0-5.8-0.1-6.3-0.8l1.6-3c0,0-2.3,2-3,1.6c-0.7-0.4-0.8-6.3-0.8-6.3
				s-0.1,5.8-0.8,6.3c-0.7,0.4-3-1.6-3-1.6s2,2.3,1.6,3c-0.4,0.7-6.3,0.8-6.3,0.8v0c0,0,5.8,0.1,6.3,0.8c0.4,0.7-1.6,3-1.6,3
				s2.3-2,3-1.6c0.7,0.4,0.8,6.3,0.8,6.3s0.1-5.8,0.8-6.3c0.7-0.4,3,1.6,3,1.6s-2-2.3-1.6-3C113.2,58.6,119,58.5,119,58.5z
				 M46.3,28.7c0,0-2.3,2-3,1.6c-0.7-0.4-0.8-6.3-0.8-6.3s-0.1,5.8-0.8,6.3c-0.7,0.4-3-1.6-3-1.6s2,2.3,1.6,3
				c-0.4,0.7-6.3,0.8-6.3,0.8v0c0,0,5.8,0.1,6.3,0.8c0.4,0.7-1.6,3-1.6,3s2.3-2,3-1.6c0.7,0.4,0.8,6.3,0.8,6.3s0.1-5.8,0.8-6.3
				c0.7-0.4,3,1.6,3,1.6s-2-2.3-1.6-3l6.3-0.8v0c0,0-5.8-0.1-6.3-0.8L46.3,28.7z M25,59c0,0-1.5,1.3-2,1c-0.5-0.3-0.5-4-0.5-4
				s-0.1,3.8-0.5,4c-0.5,0.3-2-1-2-1s1.3,1.5,1,2c-0.3,0.5-4.1,0.5-4.1,0.5v0c0,0,3.8,0.1,4.1,0.5c0.3,0.5-1,2-1,2s1.5-1.3,2-1
				l0.5,4c0,0,0.1-3.8,0.5-4c0.5-0.3,2,1,2,1s-1.3-1.5-1-2c0.3-0.5,4.1-0.5,4.1-0.5v0c0,0-3.8-0.1-4.1-0.5C23.7,60.5,25,59,25,59z
				 M80,42c0,0-1.5,1.3-2,1c-0.5-0.3-0.5-4-0.5-4s-0.1,3.8-0.5,4c-0.5,0.3-2-1-2-1s1.3,1.5,1,2c-0.3,0.5-4.1,0.5-4.1,0.5v0
				c0,0,3.8,0.1,4.1,0.5c0.3,0.5-1,2-1,2s1.5-1.3,2-1c0.5,0.3,0.5,4,0.5,4s0.1-3.8,0.5-4c0.5-0.3,2,1,2,1s-1.3-1.5-1-2l4.1-0.5v0
				c0,0-3.8-0.1-4.1-0.5C78.7,43.5,80,42,80,42z"/>
			<path fill="#D7B442" d="M64,67c-0.8,0-1.7,0-2.5,0.1C95.7,68.4,123,96.5,123,131c0,34.5-27.3,62.6-61.5,63.9
				c0.8,0,1.7,0.1,2.5,0.1c35.3,0,64-28.7,64-64C128,95.7,99.3,67,64,67z"/>
			<path fill="#EAA344" d="M59,113c-6.6,0-12,4.5-12,10c0,5.5,5.4,10,12,10c6.6,0,12-4.5,12-10C71,117.5,65.6,113,59,113z M34,89
				c-5,0-9,3.4-9,7.5c0,4.1,4,7.5,9,7.5s9-3.4,9-7.5C43,92.4,39,89,34,89z M64,67c-7,0-13.7,1.1-20,3.2c0,0.6,0.1,1.3,0.3,1.9
				c1.5,4.5,8,7.9,15.7,7.9c8.8,0,16-4.5,16-10c0-0.7-0.1-1.3-0.3-1.9C71.9,67.4,68,67,64,67z M96.5,91.6c-6.2-5.2-14.2-6.1-17.7-2
				c-3.6,4.1-1.4,11.7,4.8,16.8c6.2,5.2,14.2,6.1,17.7,2C104.9,104.3,102.7,96.8,96.5,91.6z"/>
			<path fill="#D1933B" d="M49,123c0-5.2,4.8-9.5,11-10c-0.3,0-0.7,0-1,0c-6.6,0-12,4.5-12,10c0,5.5,5.4,10,12,10c0.3,0,0.7,0,1,0
				C53.8,132.5,49,128.2,49,123z M27,96.5c0-3.9,3.5-7,8-7.5c-0.3,0-0.7,0-1,0c-5,0-9,3.4-9,7.5c0,4.1,4,7.5,9,7.5c0.3,0,0.7,0,1,0
				C30.5,103.5,27,100.4,27,96.5L27,96.5z M85.5,106.4c-6.2-5.2-8.4-12.7-4.8-16.8c1.3-1.5,3.2-2.3,5.4-2.5c-3-0.2-5.7,0.6-7.4,2.5
				c-3.6,4.1-1.4,11.7,4.8,16.8c3.9,3.3,8.6,4.8,12.3,4.5C92.5,110.7,88.8,109.2,85.5,106.4z M60.9,80c-7.2-0.3-13.1-3.6-14.6-7.9
				c-0.2-0.6-0.3-1.3-0.3-2V70l0-0.4c-0.7,0.2-1.4,0.4-2,0.6l0,0c0,0.3,0,0.6,0.1,0.9c0.1,0.3,0.1,0.6,0.2,0.9
				c1.5,4.5,8,7.9,15.7,7.9C60.3,80,60.6,80,60.9,80z"/>
		</g>
	</g>
</g>
</svg>
