<?xml version="1.0" encoding="utf-8"?>
<!-- Generator: Adobe Illustrator 18.0.0, SVG Export Plug-In . SVG Version: 6.00 Build 0)  -->
<!DOCTYPE svg PUBLIC "-//W3C//DTD SVG 1.1//EN" "http://www.w3.org/Graphics/SVG/1.1/DTD/svg11.dtd">
<svg version="1.1" id="Layer_1" xmlns="http://www.w3.org/2000/svg" xmlns:xlink="http://www.w3.org/1999/xlink" x="0px" y="0px"
	 viewBox="0 -9.5 128 137.5" enable-background="new 0 -9.5 128 137.5" xml:space="preserve">
<path fill="#334D5D" d="M64,0c35.3,0,64,28.7,64,64c0,35.3-28.7,64-64,64C28.7,128,0,99.3,0,64C0,28.7,28.7,0,64,0z"/>
<path fill="#2E3141" d="M7.7,94.4c10.8,20,32,33.6,56.3,33.6c24.3,0,45.5-13.6,56.3-33.6H7.7z"/>
<path fill="#F37D66" d="M49.5,112.1c0,2.7,7.2,4.8,16,4.8s16-2.1,16-4.8s-7.2-4.8-16-4.8S49.5,109.5,49.5,112.1z M93.9,80.3
	c-0.8-1.4-2.6-1.9-3.9-1.1c-22.7,13.1-51.8,5.1-65-17.8C11.7,38.4,19.4,9.1,42.1-4c1.4-0.8,1.8-2.6,1-4c-0.8-1.4-2.6-1.9-3.9-1.1
	C13.8,5.6,5.1,38.6,19.9,64.3c9.4,16.3,25.9,25.8,43.2,26.9l-2.5,16.1h9.6l-2.5-16c8.5-0.2,17.1-2.5,25-7.1
	C94.2,83.5,94.7,81.7,93.9,80.3z"/>
<path fill="#26A6D1" d="M67.1-6.3c23.9,0,43.2,19.4,43.2,43.2c0,23.9-19.4,43.2-43.2,43.2S23.9,60.8,23.9,36.9
	C23.9,13,43.2-6.3,67.1-6.3z"/>
<g>
	<defs>
		<circle id="SVGID_1_" cx="67.1" cy="36.9" r="43.2"/>
	</defs>
	<clipPath id="SVGID_2_">
		<use xlink:href="#SVGID_1_"  overflow="visible"/>
	</clipPath>
	<path clip-path="url(#SVGID_2_)" fill="#8CC6BA" d="M72.7,32.8c-5.9-1.8-0.5-2.2-6.8-4.9c-6.3-2.7-5.9-5.4-7.7-4.5
		c-1.8,0.9-5.4,1.8-5.4,1.8l-4.5-4c0,0-9-4-5.9-8.1c3.1-4.1,5.8-6.3,7.6-3.2c1.8,3.1,2.3,3.1,3.6-0.9c1.3-4.1,6.7-9.9,8.9-10
		c2.3,0,4-3.6,4-3.6s8.1,0,3.1-3.2C53-9,29,1.9,33.8,11.4c1.4,1.8,2.3,5.4,5.5,7.6c3.2,2.2,5.4,4,7.7,4.9c2.3,0.9,7.2,2.7,5.9,3.6
		c-1.3,0.9-2.2,2.3-0.8,7.2c1.4,4.9,1.4,5.4,3.7,8.1c2.3,2.7,4.1,3.6,4.1,6.7c0,3.2-1.3,9.5-0.4,12.2c0.9,2.7,1.9,8.1,3.7,8.5
		c1.8,0.4,5.9,3.6,4.5,0.9c-1.4-2.7-4.1-7.6-1.9-9.9c2.2-2.3,5.4-3.2,6.7-7.7c1.3-4.5,4-5.4,4-5.4l1.8-5.4l1.8-3.6
		C79.9,39,78.5,34.5,72.7,32.8z M94.4,3.4c-0.7-2.2-4.6-2.8-4.6-2.8s-5.8,5.3-7.1,9.2c-0.5-1.7-4.2,3.2-1.2,7
		c3,3.8,12.4,17.6,13.1,16.7c1.8-1.9,5.7,0.1,8.3-0.6c2.6-0.8,10.2-3.6,11.5-5.4C121.9,17.1,92.4-3,94.4,3.4z"/>
</g>
<path fill="#1795BF" d="M67.1-6.3c-1.1,0-2.1,0.1-3.2,0.1c22.4,1.7,40,20.3,40,43.1c0,22.8-17.6,41.4-40,43.1c1,0.1,2.1,0.1,3.2,0.1
	c23.9,0,43.2-19.4,43.2-43.2C110.3,13,91-6.3,67.1-6.3z"/>
<path fill="#7DB2A7" d="M94.4,3.4L94.4,3.4L94.4,3.4c-1.1-0.9-2.2-1.7-3.3-2.4c-0.7-0.2-1.3-0.3-1.3-0.3s-1,1-2.3,2.3
	c9,7.1,15.1,17.6,16.3,29.6c1.6-0.5,3.9-1.4,6.1-2.4C108.1,19.4,102.5,10,94.4,3.4z"/>
</svg>
