<?xml version="1.0" encoding="utf-8"?>
<!-- Generator: Adobe Illustrator 18.0.0, SVG Export Plug-In . SVG Version: 6.00 Build 0)  -->
<!DOCTYPE svg PUBLIC "-//W3C//DTD SVG 1.1//EN" "http://www.w3.org/Graphics/SVG/1.1/DTD/svg11.dtd">
<svg version="1.1" id="Isolation_Mode" xmlns="http://www.w3.org/2000/svg" xmlns:xlink="http://www.w3.org/1999/xlink" x="0px"
	 y="0px" viewBox="-0.3 -7.8 128 135.8" enable-background="new -0.3 -7.8 128 135.8" xml:space="preserve">
<g id="Layer_1">
	<path fill="#334D5D" d="M63.7,0c35.3,0,64,28.7,64,64c0,35.3-28.7,64-64,64s-64-28.7-64-64C-0.3,28.7,28.4,0,63.7,0z"/>
	<path fill="#2E3141" d="M3.4,85.2c8.8,24.9,32.5,42.8,60.4,42.8c27.9,0,51.6-17.9,60.4-42.8H3.4z"/>
	<g>
		<path fill="#BCC4C8" d="M33.5,46.2H94v2.6H33.5V46.2z"/>
		<path fill="#F4EFEF" d="M96.6,46.8c0-1.1-0.8-1.9-1.9-1.9c-1,0-1.9,0.9-1.9,1.9c0,16.4-13.1,29.7-29.1,29.7S34.7,63.2,34.7,46.8
			c0-1.1-0.8-1.9-1.9-1.9c-1,0-1.9,0.9-1.9,1.9c0,17.9,13.8,32.6,31.2,33.5L59.8,95c-5.3,0.5-9.2,2-9.2,3.8c0,2.2,5.9,3.9,13.2,3.9
			s13.2-1.8,13.2-3.9c0-1.8-3.9-3.3-9.2-3.8l-2.2-14.7C82.8,79.4,96.6,64.7,96.6,46.8z"/>
		<path fill="#EFC84A" d="M63.7-7.8c13.8,0,25,11.2,25,25v30.3c0,13.8-11.2,25-25,25s-25-11.2-25-25V17.2
			C38.8,3.4,49.9-7.8,63.7-7.8z"/>
		<path fill="#D7B442" d="M63.7-7.8c-0.7,0-1.3,0-2,0.1c12.9,1,23,11.8,23,24.9v30.3c0,13.1-10.1,23.9-23,24.9
			c0.7,0.1,1.3,0.1,2,0.1c13.8,0,25-11.2,25-25V17.2C88.7,3.4,77.5-7.8,63.7-7.8z"/>
		<path fill="#F37D66" d="M88.4,51.4H39.1c1.9,11.9,12.2,21,24.7,21S86.5,63.4,88.4,51.4z"/>
		<path fill="#EBEEEE" d="M38.8,47.5c0,1.3,0.1,2.7,0.3,3.9h49.3c0.2-1.3,0.3-2.6,0.3-3.9v-3.9h-50V47.5z"/>
		<path fill="#C0A03A" d="M71.6,29.1h17.1v-5.3H71.6c-1.5,0-2.6,1.2-2.6,2.6C69,27.9,70.2,29.1,71.6,29.1z M58.5,26.5
			c0-1.5-1.2-2.6-2.6-2.6H38.8v5.3h17.1C57.3,29.1,58.5,27.9,58.5,26.5z M69,10.7c0,1.5,1.2,2.6,2.6,2.6h16.8
			C88.1,11.5,87.6,9.7,87,8H71.6C70.2,8,69,9.2,69,10.7z M69,18.6c0,1.5,1.2,2.6,2.6,2.6h17.1v-3.9c0-0.4,0-0.9-0.1-1.3h-17
			C70.2,15.9,69,17.1,69,18.6z M55.9,15.9h-17c0,0.4-0.1,0.9-0.1,1.3v3.9h17.1c1.5,0,2.6-1.2,2.6-2.6S57.3,15.9,55.9,15.9z
			 M58.5,34.3c0-1.5-1.2-2.6-2.6-2.6H38.8V37h17.1C57.3,37,58.5,35.8,58.5,34.3z M71.6,31.7c-1.5,0-2.6,1.2-2.6,2.6s1.2,2.6,2.6,2.6
			h17.1v-5.3H71.6z M55.9,8H40.5c-0.7,1.7-1.1,3.4-1.4,5.3h16.8c1.5,0,2.6-1.2,2.6-2.6S57.3,8,55.9,8z"/>
		<g>
			<defs>
				<path id="SVGID_5_" d="M63.7-7.8c-0.7,0-1.3,0-2,0.1c12.9,1,23,11.8,23,24.9v30.3c0,13.1-10.1,23.9-23,24.9
					c0.7,0.1,1.3,0.1,2,0.1c13.8,0,25-11.2,25-25V17.2C88.7,3.4,77.5-7.8,63.7-7.8z"/>
			</defs>
			<clipPath id="SVGID_1_">
				<use xlink:href="#SVGID_5_"  overflow="visible"/>
			</clipPath>
			<path clip-path="url(#SVGID_1_)" fill="#AC9033" d="M71.6,29.1h17.1v-5.3H71.6c-1.5,0-2.6,1.2-2.6,2.6
				C69,27.9,70.2,29.1,71.6,29.1z M58.5,26.5c0-1.5-1.2-2.6-2.6-2.6H38.8v5.3h17.1C57.3,29.1,58.5,27.9,58.5,26.5z M69,10.7
				c0,1.5,1.2,2.6,2.6,2.6h16.8C88.1,11.5,87.6,9.7,87,8H71.6C70.2,8,69,9.2,69,10.7z M69,18.6c0,1.5,1.2,2.6,2.6,2.6h17.1v-3.9
				c0-0.4,0-0.9-0.1-1.3h-17C70.2,15.9,69,17.1,69,18.6z M55.9,15.9h-17c0,0.4-0.1,0.9-0.1,1.3v3.9h17.1c1.5,0,2.6-1.2,2.6-2.6
				S57.3,15.9,55.9,15.9z M58.5,34.3c0-1.5-1.2-2.6-2.6-2.6H38.8V37h17.1C57.3,37,58.5,35.8,58.5,34.3z M71.6,31.7
				c-1.5,0-2.6,1.2-2.6,2.6s1.2,2.6,2.6,2.6h17.1v-5.3H71.6z M55.9,8H40.5c-0.7,1.7-1.1,3.4-1.4,5.3h16.8c1.5,0,2.6-1.2,2.6-2.6
				S57.3,8,55.9,8z"/>
		</g>
		<path fill="#D3D6D7" d="M84.8,47.5c0,1.3-0.1,2.7-0.3,3.9h3.9l0,0c0.1-0.6,0.2-1.2,0.2-1.8c0.1-0.7,0.1-1.4,0.1-2.1v-3.9h-3.9
			L84.8,47.5z"/>
		<g>
			<defs>
				<path id="SVGID_7_" d="M63.7-7.8c-0.7,0-1.3,0-2,0.1c12.9,1,23,11.8,23,24.9v30.3c0,13.1-10.1,23.9-23,24.9
					c0.7,0.1,1.3,0.1,2,0.1c13.8,0,25-11.2,25-25V17.2C88.7,3.4,77.5-7.8,63.7-7.8z"/>
			</defs>
			<clipPath id="SVGID_2_">
				<use xlink:href="#SVGID_7_"  overflow="visible"/>
			</clipPath>
			<path clip-path="url(#SVGID_2_)" fill="#AC9033" d="M71.6,29.1h17.1v-5.3H71.6c-1.5,0-2.6,1.2-2.6,2.6
				C69,27.9,70.2,29.1,71.6,29.1z M58.5,26.5c0-1.5-1.2-2.6-2.6-2.6H38.8v5.3h17.1C57.3,29.1,58.5,27.9,58.5,26.5z M69,10.7
				c0,1.5,1.2,2.6,2.6,2.6h16.8C88.1,11.5,87.6,9.7,87,8H71.6C70.2,8,69,9.2,69,10.7z M69,18.6c0,1.5,1.2,2.6,2.6,2.6h17.1v-3.9
				c0-0.4,0-0.9-0.1-1.3h-17C70.2,15.9,69,17.1,69,18.6z M55.9,15.9h-17c0,0.4-0.1,0.9-0.1,1.3v3.9h17.1c1.5,0,2.6-1.2,2.6-2.6
				S57.3,15.9,55.9,15.9z M58.5,34.3c0-1.5-1.2-2.6-2.6-2.6H38.8V37h17.1C57.3,37,58.5,35.8,58.5,34.3z M71.6,31.7
				c-1.5,0-2.6,1.2-2.6,2.6s1.2,2.6,2.6,2.6h17.1v-5.3H71.6z M55.9,8H40.5c-0.7,1.7-1.1,3.4-1.4,5.3h16.8c1.5,0,2.6-1.2,2.6-2.6
				S57.3,8,55.9,8z"/>
		</g>
		<path fill="#EF7060" d="M67,72.3c0.5-0.1,1-0.1,1.6-0.2c0.3-0.1,0.6-0.1,1-0.2c0.4-0.1,0.9-0.2,1.3-0.3c0.3-0.1,0.7-0.2,1-0.3
			c0.4-0.1,0.8-0.3,1.2-0.4c0.4-0.1,0.7-0.3,1.1-0.5c0.3-0.2,0.7-0.3,1-0.5c0.4-0.2,0.7-0.4,1.1-0.6l0.8-0.5
			c0.4-0.2,0.8-0.5,1.1-0.7l0.6-0.5c0.4-0.3,0.8-0.6,1.2-1l0.3-0.3c4.2-3.8,7.2-8.9,8.1-14.8v0h-3.9c-1.8,11.3-11.1,20-22.7,20.9
			c0.7,0.1,1.3,0.1,2,0.1c0.8,0,1.6,0,2.4-0.1L67,72.3z"/>
	</g>
</g>
</svg>
