<?xml version="1.0" encoding="utf-8"?>
<!-- Generator: Adobe Illustrator 18.0.0, SVG Export Plug-In . SVG Version: 6.00 Build 0)  -->
<!DOCTYPE svg PUBLIC "-//W3C//DTD SVG 1.1//EN" "http://www.w3.org/Graphics/SVG/1.1/DTD/svg11.dtd">
<svg version="1.1" id="Calque_1" xmlns="http://www.w3.org/2000/svg" xmlns:xlink="http://www.w3.org/1999/xlink" x="0px" y="0px"
	 viewBox="0 0 100 100" enable-background="new 0 0 100 100" xml:space="preserve">
<path fill="#334D5D" d="M50,0C22.4,0,0,22.4,0,50c0,27.6,22.4,50,50,50c27.6,0,50-22.4,50-50C100,22.4,77.6,0,50,0z"/>
<path fill="#EFC84A" d="M54,47c2.7,2.7,2.7,7,0,9.6c-2.7,2.7-10.4,6.1-13.1,3.4s0.8-10.4,3.4-13.1C47,44.3,51.3,44.3,54,47z"/>
<path fill="#DEB957" d="M46,45.8l0,0.2c0,5,4,9,9,9l0.2,0c1.4-2.6,1-5.8-1.2-8C51.8,44.8,48.6,44.4,46,45.8z"/>
<path fill="#26A6D1" d="M1.5,62c4.8,19.3,20.7,34.1,40.5,37.3C40.8,78.5,23.6,62,2.5,62C2.2,62,1.8,62,1.5,62z"/>
<g>
	<path fill="#1795BF" d="M12.4,82.9c3.2-0.4,5.6-3.1,5.6-6.4c0-3.6-2.9-6.5-6.5-6.5c-2.5,0-4.6,1.4-5.7,3.4
		C7.6,76.8,9.8,80,12.4,82.9z"/>
	<circle fill="#1795BF" cx="29" cy="84" r="4"/>
</g>
<path fill="#EFC84A" d="M15,6c-0.6,5.4-3.6,8.4-9,9c5.4,0.6,8.4,3.6,9,9c0.6-5.4,3.6-8.4,9-9C18.6,14.4,15.6,11.4,15,6z M72,74
	c-0.5,4.2-2.8,6.5-7,7c4.2,0.5,6.5,2.8,7,7c0.5-4.2,2.8-6.5,7-7C74.8,80.5,72.5,78.2,72,74z"/>
<path fill="#4D6471" d="M89,45c-0.3,3-2,4.7-5,5c3,0.3,4.7,2,5,5c0.3-3,2-4.7,5-5C91,49.7,89.3,48,89,45z M19,43
	c-0.3,2.4-1.6,3.7-4,4c2.4,0.3,3.7,1.6,4,4c0.3-2.4,1.6-3.7,4-4C20.6,46.7,19.3,45.4,19,43z M47,71c-0.3,3-2,4.7-5,5
	c3,0.3,4.7,2,5,5c0.3-3,2-4.7,5-5C49,75.7,47.3,74,47,71z"/>
<path fill="#F37D66" d="M68,32c8.1,8.1,9.8,19.7,2,27.5l-3.7,3.7c-7.7,7.7-2.4-10.8-10.5-19c-8.1-8.1-26.7-2.8-19-10.5l3.7-3.7
	C48.2,22.3,59.8,23.9,68,32z"/>
<path fill="#FFFFFF" d="M95,5c2.5,2.5,1.4,18.2-13.8,33.4C71.2,48.3,65,51.8,65,51.8c-6.6,4.5-9.8,1.4-14-2.8
	c-4.2-4.2-7.3-7.4-2.8-14c0,0,3.5-6.3,13.4-16.2C76.8,3.7,92.5,2.5,95,5z"/>
<path fill="#ADB2B3" d="M75,30.2c-1.4,0-2.7-0.5-3.7-1.5c-2-2-2-5.4,0-7.4c1-1,2.3-1.5,3.7-1.5s2.7,0.5,3.7,1.5c1,1,1.5,2.3,1.5,3.7
	s-0.5,2.7-1.5,3.7S76.4,30.2,75,30.2z"/>
<path fill="#334D5D" d="M75,20.5c1.2,0,2.3,0.5,3.2,1.3c0.9,0.9,1.3,2,1.3,3.2c0,1.2-0.5,2.3-1.3,3.2c-0.8,0.9-2,1.3-3.2,1.3
	c-1.2,0-2.3-0.5-3.2-1.3c-1.8-1.8-1.8-4.6,0-6.4C72.6,21,73.8,20.5,75,20.5 M75,19c-1.5,0-3.1,0.6-4.2,1.8c-2.3,2.3-2.3,6.1,0,8.5
	c1.2,1.2,2.7,1.8,4.2,1.8s3.1-0.6,4.2-1.8c2.3-2.3,2.3-6.1,0-8.5C78,19.6,76.5,19,75,19z"/>
<path fill="#1483A8" d="M28,82c2.2,0,4,1.8,4,4c0,0.2,0,0.5-0.1,0.7C32.6,86,33,85,33,84c0-2.2-1.8-4-4-4c-2,0-3.6,1.4-3.9,3.3
	C25.8,82.5,26.8,82,28,82z M11.5,70c-2.5,0-4.6,1.4-5.7,3.4L6,73.8c1.2-1.1,2.7-1.8,4.5-1.8c3.6,0,6.5,2.9,6.5,6.5
	c0,0.6-0.1,1.3-0.3,1.8c0.8-1.1,1.3-2.4,1.3-3.8C18,72.9,15.1,70,11.5,70z"/>
<path fill="#F37D66" d="M81.3,5.9c0.7,3,2.3,6.1,5,8.8c2.3,2.3,4.9,3.8,7.6,4.7C96.6,12,96.4,6.4,95,5C93.6,3.7,88.3,3.4,81.3,5.9z"
	/>
<path fill="#E6E6E6" d="M68,49.8c-7,4.7-10.4,1.5-14.7-2.9c-4.4-4.4-7.7-7.8-2.9-14.8c0,0,0.5-0.8,1.5-2.3c-2.6,3.4-3.7,5.3-3.7,5.3
	c-4.5,6.6-1.4,9.8,2.8,14c4.2,4.2,7.4,7.2,14,2.8c0,0,1.2-0.6,3.2-2.1L68,49.8z"/>
<path fill="#F37D66" d="M65.7,35.3c1.2,1.2-1.1,5.4-6.8,11.2c-5.8,5.8-9.3,7.3-10.5,6.1c-1.2-1.2,0.4-4.7,6.1-10.5
	S64.5,34.1,65.7,35.3z"/>
</svg>
